# File created by Blade
# Date/Time:  Tue Apr 07 20:41:02 2015
# Frame Rate: 120.000 fps
#------------------------------------------------------
:FULLY-SPECIFIED
:DEGREES
1764
root 1.159501 32.838838 -0.517236 11.414089 -0.235173 -1.080812
Spine -13.822238 -4.416763 -1.267630
Head 7.959094 -2.509123 -0.679876
LeftShoulder -21.370265 35.843922 23.440317
LeftArm 54.040704 -58.004668 -52.019917
LeftForeArm 11.603878 -0.000000 -2.734812
LeftHand 3.011903 0.000000 4.804712
LeftHandThumb1 -26.253704 0.000000 33.147579
RightShoulder -7.410114 8.640780 -32.335987
RightArm 7.775114 23.491540 42.388832
RightForeArm -13.847847 -0.000000 -0.373058
RightHand 1.594913 0.000000 1.167260
RightHandThumb1 -24.326973 -0.000000 -32.862282
LeftUpLeg -2.599243 -4.146782 3.797452
LeftLeg -3.913477 -0.000000 0.000000
LeftFoot -6.855313 9.322770 -17.117810
LeftToeBase -6.207098 -0.000000 0.000000
RightUpLeg -4.418581 -4.724224 2.538126
RightLeg -3.309475 -0.000000 0.000000
RightFoot -6.264499 -5.246963 7.006997
RightToeBase 2.266950 -0.000000 -0.000000
1765
root 1.149691 32.840438 -0.493337 11.418802 -0.215749 -1.098614
Spine -13.874231 -4.453216 -1.239025
Head 8.035128 -2.514031 -0.652093
LeftShoulder -21.371492 35.838033 23.421751
LeftArm 54.095543 -58.039154 -52.114206
LeftForeArm 11.708797 -0.000000 -2.732654
LeftHand 2.984622 -0.000000 4.698355
LeftHandThumb1 -26.253704 0.000000 33.147579
RightShoulder -7.393932 8.610134 -32.293031
RightArm 7.779346 23.537262 42.524821
RightForeArm -13.739100 0.000000 -0.428041
RightHand 1.565600 -0.000000 1.138612
RightHandThumb1 -24.326973 -0.000000 -32.862282
LeftUpLeg -2.574745 -4.183962 3.829840
LeftLeg -3.894688 -0.000000 0.000000
LeftFoot -6.848413 9.369592 -17.096387
LeftToeBase -6.330315 -0.000000 0.000000
RightUpLeg -4.393425 -4.809112 2.582960
RightLeg -3.296487 -0.000000 0.000000
RightFoot -6.224620 -5.195621 7.029684
RightToeBase 2.229382 -0.000000 -0.000000
1766
root 1.136737 32.841012 -0.468399 11.411457 -0.243293 -1.095997
Spine -13.911883 -4.427296 -1.276432
Head 8.114614 -2.549653 -0.575099
LeftShoulder -21.383284 35.899890 23.396877
LeftArm 54.289088 -58.105806 -52.297680
LeftForeArm 11.666620 -0.000000 -2.753941
LeftHand 3.002500 -0.000000 4.702918
LeftHandThumb1 -26.253704 0.000000 33.147579
RightShoulder -7.397552 8.565831 -32.215361
RightArm 7.785900 23.594424 42.649804
RightForeArm -13.660739 -0.000000 -0.492287
RightHand 1.579960 -0.000000 1.052924
RightHandThumb1 -24.326973 -0.000000 -32.862282
LeftUpLeg -2.527680 -4.128547 3.836519
LeftLeg -3.880199 -0.000000 0.000000
LeftFoot -6.841720 9.339967 -17.103974
LeftToeBase -6.281764 -0.000000 0.000000
RightUpLeg -4.300248 -4.699016 2.559779
RightLeg -3.380311 -0.000000 0.000000
RightFoot -6.148514 -5.160770 6.992665
RightToeBase 2.167438 -0.000000 -0.000000
1767
root 1.124160 32.840613 -0.444300 11.409030 -0.282922 -1.085192
Spine -13.955130 -4.397715 -1.324374
Head 8.203874 -2.621066 -0.491820
LeftShoulder -21.360362 35.893541 23.430121
LeftArm 54.249060 -58.087448 -52.280534
LeftForeArm 11.577472 -0.000000 -2.781854
LeftHand 3.223346 -0.000000 4.887289
LeftHandThumb1 -26.253704 0.000000 33.147579
RightShoulder -7.396962 8.534688 -32.156913
RightArm 7.777182 23.662496 42.790481
RightForeArm -13.583596 -0.000000 -0.554046
RightHand 1.548094 -0.000000 1.097368
RightHandThumb1 -24.326973 -0.000000 -32.862282
LeftUpLeg -2.484794 -4.051207 3.830935
LeftLeg -3.864565 -0.000000 0.000000
LeftFoot -6.834877 9.302496 -17.130019
LeftToeBase -6.304860 -0.000000 0.000000
RightUpLeg -4.216801 -4.600413 2.523017
RightLeg -3.455986 -0.000000 0.000000
RightFoot -6.090333 -5.081334 6.895073
RightToeBase 2.187497 -0.000000 -0.000000
1768
root 1.115204 32.841820 -0.420962 11.410183 -0.282296 -1.117373
Spine -14.008271 -4.396832 -1.277622
Head 8.310344 -2.756211 -0.451191
LeftShoulder -21.349446 35.918879 23.393594
LeftArm 54.257046 -58.104441 -52.294530
LeftForeArm 11.547580 -0.000000 -2.770634
LeftHand 3.083870 -0.000000 4.694065
LeftHandThumb1 -26.253704 0.000000 33.147579
RightShoulder -7.378861 8.488011 -32.138791
RightArm 7.775816 23.727992 42.943750
RightForeArm -13.588082 0.000000 -0.623803
RightHand 1.597168 0.000000 1.049326
RightHandThumb1 -24.326973 -0.000000 -32.862282
LeftUpLeg -2.442180 -4.040472 3.871369
LeftLeg -3.871326 -0.000000 0.000000
LeftFoot -6.817747 9.324491 -17.107985
LeftToeBase -6.299052 -0.000000 0.000000
RightUpLeg -4.189220 -4.699779 2.590663
RightLeg -3.447615 -0.000000 0.000000
RightFoot -6.045577 -5.050222 6.959812
RightToeBase 2.076063 -0.000000 -0.000000
1769
root 1.109230 32.842023 -0.397628 11.405444 -0.276620 -1.103103
Spine -14.050591 -4.415184 -1.286063
Head 8.399368 -2.799477 -0.429793
LeftShoulder -21.347160 35.931298 23.378831
LeftArm 54.317901 -58.130854 -52.370474
LeftForeArm 11.568910 -0.000000 -2.787405
LeftHand 3.129539 -0.000000 4.621407
LeftHandThumb1 -26.253704 0.000000 33.147579
RightShoulder -7.382307 8.499179 -32.112040
RightArm 7.767578 23.740496 43.070927
RightForeArm -13.580391 -0.000000 -0.714502
RightHand 1.695045 -0.000000 1.054136
RightHandThumb1 -24.326973 -0.000000 -32.862282
LeftUpLeg -2.399936 -4.011274 3.861724
LeftLeg -3.867152 -0.000000 0.000000
LeftFoot -6.803363 9.296753 -17.103413
LeftToeBase -6.278936 -0.000000 0.000000
RightUpLeg -4.125973 -4.730921 2.570012
RightLeg -3.487167 -0.000000 0.000000
RightFoot -5.999658 -4.955357 6.848730
RightToeBase 2.059688 -0.000000 -0.000000
1770
root 1.102859 32.842541 -0.375475 11.400751 -0.263960 -1.105692
Spine -14.089270 -4.450031 -1.272382
Head 8.485195 -2.807319 -0.408125
LeftShoulder -21.361233 35.932321 23.371210
LeftArm 54.336709 -58.117698 -52.412126
LeftForeArm 11.539799 -0.000000 -2.793397
LeftHand 3.143729 -0.000000 4.591043
LeftHandThumb1 -26.253704 0.000000 33.147579
RightShoulder -7.363148 8.464870 -32.070148
RightArm 7.784147 23.719880 43.193917
RightForeArm -13.523414 -0.000000 -0.797809
RightHand 1.778745 -0.000000 0.989595
RightHandThumb1 -24.326973 -0.000000 -32.862282
LeftUpLeg -2.354207 -4.009396 3.870123
LeftLeg -3.879485 -0.000000 0.000000
LeftFoot -6.776962 9.305602 -17.077475
LeftToeBase -6.298243 -0.000000 0.000000
RightUpLeg -4.068895 -4.762800 2.571744
RightLeg -3.510099 -0.000000 0.000000
RightFoot -5.952119 -4.879219 6.825209
RightToeBase 1.980597 -0.000000 -0.000000
1771
root 1.087545 32.843789 -0.351377 11.402539 -0.308620 -1.151585
Spine -14.147097 -4.421738 -1.259421
Head 8.595079 -2.834929 -0.324588
LeftShoulder -21.371788 35.970867 23.386329
LeftArm 54.342398 -58.094213 -52.413791
LeftForeArm 11.468839 -0.000000 -2.796868
LeftHand 3.115472 -0.000000 4.611542
LeftHandThumb1 -26.253704 0.000000 33.147579
RightShoulder -7.341131 8.427054 -31.992546
RightArm 7.769054 23.661275 43.288010
RightForeArm -13.443157 -0.000000 -0.869614
RightHand 1.989543 -0.000000 0.984548
RightHandThumb1 -24.326973 -0.000000 -32.862282
LeftUpLeg -2.295149 -3.920476 3.932022
LeftLeg -3.903092 -0.000000 0.000000
LeftFoot -6.738797 9.249316 -17.119063
LeftToeBase -6.320663 -0.000000 0.000000
RightUpLeg -4.029230 -4.741825 2.642767
RightLeg -3.523397 -0.000000 0.000000
RightFoot -5.904778 -4.892708 6.900222
RightToeBase 1.962499 -0.000000 -0.000000
1772
root 1.080478 32.844661 -0.329793 11.401674 -0.321349 -1.150307
Spine -14.192802 -4.424658 -1.269167
Head 8.693371 -2.862210 -0.273381
LeftShoulder -21.371584 35.990957 23.402034
LeftArm 54.343695 -58.059976 -52.422477
LeftForeArm 11.365002 -0.000000 -2.811283
LeftHand 3.112964 -0.000000 4.665998
LeftHandThumb1 -26.253704 0.000000 33.147579
RightShoulder -7.324629 8.408081 -31.936520
RightArm 7.746837 23.696841 43.399230
RightForeArm -13.334309 0.000000 -0.860029
RightHand 1.880885 -0.000000 0.862210
RightHandThumb1 -24.326973 -0.000000 -32.862282
LeftUpLeg -2.246100 -3.912660 3.938592
LeftLeg -3.920083 -0.000000 0.000000
LeftFoot -6.721668 9.253933 -17.135116
LeftToeBase -6.286307 -0.000000 0.000000
RightUpLeg -3.975211 -4.724668 2.635648
RightLeg -3.559628 -0.000000 0.000000
RightFoot -5.849838 -4.855118 6.841824
RightToeBase 1.887989 -0.000000 -0.000000
1773
root 1.074264 32.845828 -0.311569 11.414566 -0.325828 -1.156499
Spine -14.243623 -4.430098 -1.262892
Head 8.787715 -2.903872 -0.234425
LeftShoulder -21.370558 36.005272 23.398495
LeftArm 54.397715 -58.077683 -52.475994
LeftForeArm 11.371661 -0.000000 -2.839527
LeftHand 3.164596 -0.000000 4.622115
LeftHandThumb1 -26.253704 0.000000 33.147579
RightShoulder -7.322854 8.324478 -31.873730
RightArm 7.778131 23.713146 43.498224
RightForeArm -13.411464 0.000000 -0.877129
RightHand 2.011667 -0.000000 0.907795
RightHandThumb1 -24.326973 -0.000000 -32.862282
LeftUpLeg -2.219129 -3.934902 3.956364
LeftLeg -3.939551 -0.000000 0.000000
LeftFoot -6.702805 9.287916 -17.146781
LeftToeBase -6.319295 -0.000000 0.000000
RightUpLeg -3.939409 -4.697495 2.637607
RightLeg -3.597288 -0.000000 0.000000
RightFoot -5.796591 -4.831250 6.815577
RightToeBase 1.851334 -0.000000 -0.000000
1774
root 1.069636 32.847089 -0.292819 11.421022 -0.319697 -1.157490
Spine -14.291391 -4.430089 -1.259907
Head 8.890945 -2.970388 -0.206891
LeftShoulder -21.323606 36.011971 23.421016
LeftArm 54.327211 -58.049426 -52.415344
LeftForeArm 11.236459 -0.000000 -2.857321
LeftHand 3.214050 -0.000000 4.728189
LeftHandThumb1 -26.253704 0.000000 33.147579
RightShoulder -7.334333 8.242116 -31.825608
RightArm 7.788883 23.676629 43.594849
RightForeArm -13.255022 0.000000 -0.879884
RightHand 2.099940 -0.000000 0.939979
RightHandThumb1 -24.326973 -0.000000 -32.862282
LeftUpLeg -2.195534 -3.947202 3.965180
LeftLeg -3.940071 -0.000000 0.000000
LeftFoot -6.691398 9.294367 -17.190765
LeftToeBase -6.323611 -0.000000 0.000000
RightUpLeg -3.896644 -4.707717 2.636087
RightLeg -3.635560 -0.000000 0.000000
RightFoot -5.740693 -4.788585 6.772354
RightToeBase 1.824334 -0.000000 -0.000000
1775
root 1.066891 32.848809 -0.274971 11.430435 -0.302736 -1.151153
Spine -14.341592 -4.457247 -1.250208
Head 8.996043 -3.000789 -0.187114
LeftShoulder -21.313763 36.045064 23.407406
LeftArm 54.340793 -58.058481 -52.421751
LeftForeArm 11.174885 -0.000000 -2.878602
LeftHand 3.232807 -0.000000 4.700019
LeftHandThumb1 -26.253704 0.000000 33.147579
RightShoulder -7.336456 8.181789 -31.784149
RightArm 7.813105 23.694550 43.697278
RightForeArm -13.228402 -0.000000 -0.858180
RightHand 2.098387 0.000000 0.915830
RightHandThumb1 -24.326973 -0.000000 -32.862282
LeftUpLeg -2.175722 -3.979365 3.962934
LeftLeg -3.950916 -0.000000 0.000000
LeftFoot -6.645692 9.339026 -17.157837
LeftToeBase -6.388259 -0.000000 0.000000
RightUpLeg -3.854801 -4.741135 2.624202
RightLeg -3.676008 -0.000000 0.000000
RightFoot -5.671734 -4.715974 6.743730
RightToeBase 1.751236 -0.000000 -0.000000
1776
root 1.061965 32.850088 -0.255144 11.441364 -0.315024 -1.144282
Spine -14.398034 -4.451201 -1.268218
Head 9.107608 -3.060168 -0.126027
LeftShoulder -21.304102 36.076382 23.427060
LeftArm 54.461705 -58.106492 -52.544269
LeftForeArm 11.225046 0.000000 -2.912628
LeftHand 3.234937 -0.000000 4.623442
LeftHandThumb1 -26.253704 0.000000 33.147579
RightShoulder -7.323035 8.146556 -31.710636
RightArm 7.770095 23.728356 43.742335
RightForeArm -13.226623 -0.000000 -0.864155
RightHand 2.144693 -0.000000 0.833354
RightHandThumb1 -24.326973 -0.000000 -32.862282
LeftUpLeg -2.145389 -3.948170 3.961028
LeftLeg -3.965763 -0.000000 0.000000
LeftFoot -6.609245 9.317406 -17.192576
LeftToeBase -6.445062 -0.000000 0.000000
RightUpLeg -3.807357 -4.728489 2.610463
RightLeg -3.726756 -0.000000 0.000000
RightFoot -5.613195 -4.669852 6.700821
RightToeBase 1.702590 -0.000000 -0.000000
